<?xml version="1.0" encoding="UTF-8" standalone="no"?>
<svg
   xmlns:osb="http://www.openswatchbook.org/uri/2009/osb"
   xmlns:dc="http://purl.org/dc/elements/1.1/"
   xmlns:cc="http://creativecommons.org/ns#"
   xmlns:rdf="http://www.w3.org/1999/02/22-rdf-syntax-ns#"
   xmlns:svg="http://www.w3.org/2000/svg"
   xmlns="http://www.w3.org/2000/svg"
   xmlns:sodipodi="http://sodipodi.sourceforge.net/DTD/sodipodi-0.dtd"
   xmlns:inkscape="http://www.inkscape.org/namespaces/inkscape"
   width="64"
   height="64"
   viewBox="0 0 16.933333 16.933334"
   version="1.1"
   id="svg16"
   inkscape:version="1.0.1 (3bc2e813f5, 2020-09-07)"
   sodipodi:docname="shutdown.svg">
  <defs
     id="defs10">
    <linearGradient
       id="linearGradient878"
       osb:paint="solid">
      <stop
         style="stop-color:#000000;stop-opacity:1;"
         offset="0"
         id="stop876" />
    </linearGradient>
    <linearGradient
       id="linearGradient870"
       osb:paint="solid">
      <stop
         style="stop-color:#ff0800;stop-opacity:0;"
         offset="0"
         id="stop868" />
    </linearGradient>
    <linearGradient
       id="linearGradient864"
       osb:paint="solid">
      <stop
         style="stop-color:#000000;stop-opacity:1;"
         offset="0"
         id="stop862" />
    </linearGradient>
  </defs>
  <sodipodi:namedview
     id="base"
     pagecolor="#ffffff"
     bordercolor="#666666"
     borderopacity="1.0"
     inkscape:pageopacity="0.0"
     inkscape:pageshadow="2"
     inkscape:zoom="7.9195959"
     inkscape:cx="-4.7335294"
     inkscape:cy="34.237174"
     inkscape:document-units="px"
     inkscape:current-layer="layer1"
     inkscape:document-rotation="0"
     showgrid="false"
     units="px"
     inkscape:window-width="2560"
     inkscape:window-height="1376"
     inkscape:window-x="0"
     inkscape:window-y="0"
     inkscape:window-maximized="1" />
  <metadata
     id="metadata13">
    <rdf:RDF>
      <cc:Work
         rdf:about="">
        <dc:format>image/svg+xml</dc:format>
        <dc:type
           rdf:resource="http://purl.org/dc/dcmitype/StillImage" />
        <dc:title />
      </cc:Work>
    </rdf:RDF>
  </metadata>
  <g
     inkscape:label="Layer 1"
     inkscape:groupmode="layer"
     id="layer1">
    <path
       id="path884"
       style="fill:#ffffff;fill-opacity:1;stroke-width:0.841156;stroke-miterlimit:4;stroke-dasharray:none"
       d="M 25.5625 9.3222656 A 23.573078 23.573078 0 0 0 8.4277344 32 A 23.573078 23.573078 0 0 0 32 55.572266 A 23.573078 23.573078 0 0 0 55.572266 32 A 23.573078 23.573078 0 0 0 38.4375 9.3242188 L 38.4375 16.740234 A 16.563492 16.563492 0 0 1 38.707031 16.855469 A 16.563492 16.563492 0 0 1 38.992188 16.984375 A 16.563492 16.563492 0 0 1 39.275391 17.121094 A 16.563492 16.563492 0 0 1 39.556641 17.261719 A 16.563492 16.563492 0 0 1 39.833984 17.40625 A 16.563492 16.563492 0 0 1 40.109375 17.558594 A 16.563492 16.563492 0 0 1 40.380859 17.714844 A 16.563492 16.563492 0 0 1 40.650391 17.875 A 16.563492 16.563492 0 0 1 40.916016 18.042969 A 16.563492 16.563492 0 0 1 41.179688 18.212891 A 16.563492 16.563492 0 0 1 41.439453 18.388672 A 16.563492 16.563492 0 0 1 41.695312 18.572266 A 16.563492 16.563492 0 0 1 41.949219 18.757812 A 16.563492 16.563492 0 0 1 42.197266 18.947266 A 16.563492 16.563492 0 0 1 42.443359 19.142578 A 16.563492 16.563492 0 0 1 42.683594 19.34375 A 16.563492 16.563492 0 0 1 42.921875 19.548828 A 16.563492 16.563492 0 0 1 43.158203 19.757812 A 16.563492 16.563492 0 0 1 43.386719 19.970703 A 16.563492 16.563492 0 0 1 43.613281 20.189453 A 16.563492 16.563492 0 0 1 43.833984 20.412109 A 16.563492 16.563492 0 0 1 44.050781 20.638672 A 16.563492 16.563492 0 0 1 44.265625 20.869141 A 16.563492 16.563492 0 0 1 44.472656 21.103516 A 16.563492 16.563492 0 0 1 44.677734 21.341797 A 16.563492 16.563492 0 0 1 44.876953 21.583984 A 16.563492 16.563492 0 0 1 45.072266 21.830078 A 16.563492 16.563492 0 0 1 45.263672 22.080078 A 16.563492 16.563492 0 0 1 45.449219 22.332031 A 16.563492 16.563492 0 0 1 45.630859 22.587891 A 16.563492 16.563492 0 0 1 45.806641 22.847656 A 16.563492 16.563492 0 0 1 45.976562 23.111328 A 16.563492 16.563492 0 0 1 46.142578 23.378906 A 16.563492 16.563492 0 0 1 46.302734 23.648438 A 16.563492 16.563492 0 0 1 46.458984 23.921875 A 16.563492 16.563492 0 0 1 46.609375 24.195312 A 16.563492 16.563492 0 0 1 46.753906 24.474609 A 16.563492 16.563492 0 0 1 46.894531 24.755859 A 16.563492 16.563492 0 0 1 47.029297 25.039062 A 16.563492 16.563492 0 0 1 47.158203 25.324219 A 16.563492 16.563492 0 0 1 47.283203 25.613281 A 16.563492 16.563492 0 0 1 47.400391 25.904297 A 16.563492 16.563492 0 0 1 47.513672 26.197266 A 16.563492 16.563492 0 0 1 47.621094 26.492188 A 16.563492 16.563492 0 0 1 47.720703 26.787109 A 16.563492 16.563492 0 0 1 47.818359 27.085938 A 16.563492 16.563492 0 0 1 47.908203 27.386719 A 16.563492 16.563492 0 0 1 47.992188 27.689453 A 16.563492 16.563492 0 0 1 48.072266 27.994141 A 16.563492 16.563492 0 0 1 48.144531 28.298828 A 16.563492 16.563492 0 0 1 48.210938 28.607422 A 16.563492 16.563492 0 0 1 48.273438 28.914062 A 16.563492 16.563492 0 0 1 48.330078 29.222656 A 16.563492 16.563492 0 0 1 48.378906 29.533203 A 16.563492 16.563492 0 0 1 48.423828 29.84375 A 16.563492 16.563492 0 0 1 48.460938 30.154297 A 16.563492 16.563492 0 0 1 48.492188 30.466797 A 16.563492 16.563492 0 0 1 48.517578 30.779297 A 16.563492 16.563492 0 0 1 48.537109 31.09375 A 16.563492 16.563492 0 0 1 48.552734 31.40625 A 16.563492 16.563492 0 0 1 48.560547 31.720703 A 16.563492 16.563492 0 0 1 48.5625 32 A 16.563492 16.563492 0 0 1 48.560547 32.314453 A 16.563492 16.563492 0 0 1 48.550781 32.628906 A 16.563492 16.563492 0 0 1 48.537109 32.941406 A 16.563492 16.563492 0 0 1 48.515625 33.253906 A 16.563492 16.563492 0 0 1 48.488281 33.568359 A 16.563492 16.563492 0 0 1 48.455078 33.880859 A 16.563492 16.563492 0 0 1 48.417969 34.191406 A 16.563492 16.563492 0 0 1 48.373047 34.501953 A 16.563492 16.563492 0 0 1 48.322266 34.8125 A 16.563492 16.563492 0 0 1 48.267578 35.121094 A 16.563492 16.563492 0 0 1 48.205078 35.427734 A 16.563492 16.563492 0 0 1 48.136719 35.734375 A 16.563492 16.563492 0 0 1 48.0625 36.039062 A 16.563492 16.563492 0 0 1 47.984375 36.34375 A 16.563492 16.563492 0 0 1 47.898438 36.644531 A 16.563492 16.563492 0 0 1 47.808594 36.945312 A 16.563492 16.563492 0 0 1 47.710938 37.244141 A 16.563492 16.563492 0 0 1 47.609375 37.541016 A 16.563492 16.563492 0 0 1 47.501953 37.835938 A 16.563492 16.563492 0 0 1 47.388672 38.128906 A 16.563492 16.563492 0 0 1 47.269531 38.419922 A 16.563492 16.563492 0 0 1 47.144531 38.707031 A 16.563492 16.563492 0 0 1 47.015625 38.992188 A 16.563492 16.563492 0 0 1 46.880859 39.277344 A 16.563492 16.563492 0 0 1 46.738281 39.556641 A 16.563492 16.563492 0 0 1 46.591797 39.835938 A 16.563492 16.563492 0 0 1 46.441406 40.109375 A 16.563492 16.563492 0 0 1 46.285156 40.382812 A 16.563492 16.563492 0 0 1 46.125 40.652344 A 16.563492 16.563492 0 0 1 45.958984 40.917969 A 16.563492 16.563492 0 0 1 45.787109 41.181641 A 16.563492 16.563492 0 0 1 45.611328 41.441406 A 16.563492 16.563492 0 0 1 45.429688 41.697266 A 16.563492 16.563492 0 0 1 45.242188 41.949219 A 16.563492 16.563492 0 0 1 45.052734 42.197266 A 16.563492 16.563492 0 0 1 44.855469 42.443359 A 16.563492 16.563492 0 0 1 44.65625 42.685547 A 16.563492 16.563492 0 0 1 44.453125 42.921875 A 16.563492 16.563492 0 0 1 44.242188 43.158203 A 16.563492 16.563492 0 0 1 44.027344 43.386719 A 16.563492 16.563492 0 0 1 43.810547 43.613281 A 16.563492 16.563492 0 0 1 43.587891 43.833984 A 16.563492 16.563492 0 0 1 43.363281 44.052734 A 16.563492 16.563492 0 0 1 43.130859 44.265625 A 16.563492 16.563492 0 0 1 42.898438 44.472656 A 16.563492 16.563492 0 0 1 42.660156 44.679688 A 16.563492 16.563492 0 0 1 42.416016 44.876953 A 16.563492 16.563492 0 0 1 42.171875 45.074219 A 16.563492 16.563492 0 0 1 41.921875 45.263672 A 16.563492 16.563492 0 0 1 41.669922 45.449219 A 16.563492 16.563492 0 0 1 41.412109 45.630859 A 16.563492 16.563492 0 0 1 41.152344 45.806641 A 16.563492 16.563492 0 0 1 40.888672 45.976562 A 16.563492 16.563492 0 0 1 40.623047 46.142578 A 16.563492 16.563492 0 0 1 40.353516 46.304688 A 16.563492 16.563492 0 0 1 40.080078 46.458984 A 16.563492 16.563492 0 0 1 39.804688 46.609375 A 16.563492 16.563492 0 0 1 39.527344 46.755859 A 16.563492 16.563492 0 0 1 39.246094 46.894531 A 16.563492 16.563492 0 0 1 38.960938 47.029297 A 16.563492 16.563492 0 0 1 38.675781 47.160156 A 16.563492 16.563492 0 0 1 38.388672 47.283203 A 16.563492 16.563492 0 0 1 38.097656 47.400391 A 16.563492 16.563492 0 0 1 37.802734 47.513672 A 16.563492 16.563492 0 0 1 37.509766 47.621094 A 16.563492 16.563492 0 0 1 37.212891 47.722656 A 16.563492 16.563492 0 0 1 36.912109 47.818359 A 16.563492 16.563492 0 0 1 36.613281 47.908203 A 16.563492 16.563492 0 0 1 36.310547 47.992188 A 16.563492 16.563492 0 0 1 36.005859 48.072266 A 16.563492 16.563492 0 0 1 35.701172 48.144531 A 16.563492 16.563492 0 0 1 35.394531 48.212891 A 16.563492 16.563492 0 0 1 35.085938 48.273438 A 16.563492 16.563492 0 0 1 34.777344 48.330078 A 16.563492 16.563492 0 0 1 34.46875 48.378906 A 16.563492 16.563492 0 0 1 34.158203 48.423828 A 16.563492 16.563492 0 0 1 33.845703 48.460938 A 16.563492 16.563492 0 0 1 33.533203 48.494141 A 16.563492 16.563492 0 0 1 33.220703 48.517578 A 16.563492 16.563492 0 0 1 32.908203 48.539062 A 16.563492 16.563492 0 0 1 32.59375 48.552734 A 16.563492 16.563492 0 0 1 32.279297 48.560547 A 16.563492 16.563492 0 0 1 32 48.564453 A 16.563492 16.563492 0 0 1 31.6875 48.560547 A 16.563492 16.563492 0 0 1 31.373047 48.552734 A 16.563492 16.563492 0 0 1 31.058594 48.537109 A 16.563492 16.563492 0 0 1 30.746094 48.517578 A 16.563492 16.563492 0 0 1 30.433594 48.490234 A 16.563492 16.563492 0 0 1 30.121094 48.457031 A 16.563492 16.563492 0 0 1 29.808594 48.417969 A 16.563492 16.563492 0 0 1 29.498047 48.373047 A 16.563492 16.563492 0 0 1 29.1875 48.324219 A 16.563492 16.563492 0 0 1 28.878906 48.267578 A 16.563492 16.563492 0 0 1 28.572266 48.205078 A 16.563492 16.563492 0 0 1 28.265625 48.136719 A 16.563492 16.563492 0 0 1 27.960938 48.0625 A 16.563492 16.563492 0 0 1 27.65625 47.984375 A 16.563492 16.563492 0 0 1 27.355469 47.898438 A 16.563492 16.563492 0 0 1 27.054688 47.808594 A 16.563492 16.563492 0 0 1 26.755859 47.710938 A 16.563492 16.563492 0 0 1 26.458984 47.609375 A 16.563492 16.563492 0 0 1 26.164062 47.501953 A 16.563492 16.563492 0 0 1 25.871094 47.388672 A 16.563492 16.563492 0 0 1 25.582031 47.269531 A 16.563492 16.563492 0 0 1 25.292969 47.144531 A 16.563492 16.563492 0 0 1 25.007812 47.015625 A 16.563492 16.563492 0 0 1 24.724609 46.880859 A 16.563492 16.563492 0 0 1 24.443359 46.738281 A 16.563492 16.563492 0 0 1 24.166016 46.59375 A 16.563492 16.563492 0 0 1 23.890625 46.443359 A 16.563492 16.563492 0 0 1 23.619141 46.287109 A 16.563492 16.563492 0 0 1 23.349609 46.125 A 16.563492 16.563492 0 0 1 23.083984 45.958984 A 16.563492 16.563492 0 0 1 22.820312 45.787109 A 16.563492 16.563492 0 0 1 22.560547 45.611328 A 16.563492 16.563492 0 0 1 22.304688 45.429688 A 16.563492 16.563492 0 0 1 22.050781 45.244141 A 16.563492 16.563492 0 0 1 21.800781 45.052734 A 16.563492 16.563492 0 0 1 21.556641 44.855469 A 16.563492 16.563492 0 0 1 21.316406 44.658203 A 16.563492 16.563492 0 0 1 21.078125 44.451172 A 16.563492 16.563492 0 0 1 20.84375 44.244141 A 16.563492 16.563492 0 0 1 20.613281 44.029297 A 16.563492 16.563492 0 0 1 20.386719 43.810547 A 16.563492 16.563492 0 0 1 20.166016 43.589844 A 16.563492 16.563492 0 0 1 19.949219 43.363281 A 16.563492 16.563492 0 0 1 19.734375 43.132812 A 16.563492 16.563492 0 0 1 19.525391 42.898438 A 16.563492 16.563492 0 0 1 19.322266 42.660156 A 16.563492 16.563492 0 0 1 19.123047 42.417969 A 16.563492 16.563492 0 0 1 18.925781 42.171875 A 16.563492 16.563492 0 0 1 18.736328 41.921875 A 16.563492 16.563492 0 0 1 18.550781 41.669922 A 16.563492 16.563492 0 0 1 18.369141 41.412109 A 16.563492 16.563492 0 0 1 18.193359 41.152344 A 16.563492 16.563492 0 0 1 18.023438 40.888672 A 16.563492 16.563492 0 0 1 17.857422 40.623047 A 16.563492 16.563492 0 0 1 17.695312 40.353516 A 16.563492 16.563492 0 0 1 17.541016 40.080078 A 16.563492 16.563492 0 0 1 17.390625 39.806641 A 16.563492 16.563492 0 0 1 17.246094 39.527344 A 16.563492 16.563492 0 0 1 17.105469 39.246094 A 16.563492 16.563492 0 0 1 16.970703 38.962891 A 16.563492 16.563492 0 0 1 16.841797 38.675781 A 16.563492 16.563492 0 0 1 16.716797 38.388672 A 16.563492 16.563492 0 0 1 16.599609 38.097656 A 16.563492 16.563492 0 0 1 16.486328 37.804688 A 16.563492 16.563492 0 0 1 16.380859 37.509766 A 16.563492 16.563492 0 0 1 16.279297 37.212891 A 16.563492 16.563492 0 0 1 16.181641 36.912109 A 16.563492 16.563492 0 0 1 16.091797 36.611328 A 16.563492 16.563492 0 0 1 16.007812 36.310547 A 16.563492 16.563492 0 0 1 15.927734 36.007812 A 16.563492 16.563492 0 0 1 15.855469 35.703125 A 16.563492 16.563492 0 0 1 15.789062 35.394531 A 16.563492 16.563492 0 0 1 15.726562 35.087891 A 16.563492 16.563492 0 0 1 15.669922 34.779297 A 16.563492 16.563492 0 0 1 15.621094 34.46875 A 16.563492 16.563492 0 0 1 15.576172 34.158203 A 16.563492 16.563492 0 0 1 15.539062 33.845703 A 16.563492 16.563492 0 0 1 15.507812 33.533203 A 16.563492 16.563492 0 0 1 15.482422 33.220703 A 16.563492 16.563492 0 0 1 15.460938 32.908203 A 16.563492 16.563492 0 0 1 15.447266 32.59375 A 16.563492 16.563492 0 0 1 15.439453 32.279297 A 16.563492 16.563492 0 0 1 15.4375 32 A 16.563492 16.563492 0 0 1 15.439453 31.6875 A 16.563492 16.563492 0 0 1 15.449219 31.373047 A 16.563492 16.563492 0 0 1 15.462891 31.058594 A 16.563492 16.563492 0 0 1 15.484375 30.746094 A 16.563492 16.563492 0 0 1 15.511719 30.433594 A 16.563492 16.563492 0 0 1 15.544922 30.121094 A 16.563492 16.563492 0 0 1 15.582031 29.808594 A 16.563492 16.563492 0 0 1 15.626953 29.498047 A 16.563492 16.563492 0 0 1 15.677734 29.189453 A 16.563492 16.563492 0 0 1 15.732422 28.880859 A 16.563492 16.563492 0 0 1 15.794922 28.572266 A 16.563492 16.563492 0 0 1 15.863281 28.265625 A 16.563492 16.563492 0 0 1 15.9375 27.960938 A 16.563492 16.563492 0 0 1 16.015625 27.65625 A 16.563492 16.563492 0 0 1 16.101562 27.355469 A 16.563492 16.563492 0 0 1 16.191406 27.054688 A 16.563492 16.563492 0 0 1 16.289062 26.755859 A 16.563492 16.563492 0 0 1 16.390625 26.458984 A 16.563492 16.563492 0 0 1 16.498047 26.166016 A 16.563492 16.563492 0 0 1 16.611328 25.873047 A 16.563492 16.563492 0 0 1 16.730469 25.582031 A 16.563492 16.563492 0 0 1 16.855469 25.292969 A 16.563492 16.563492 0 0 1 16.984375 25.007812 A 16.563492 16.563492 0 0 1 17.119141 24.724609 A 16.563492 16.563492 0 0 1 17.261719 24.443359 A 16.563492 16.563492 0 0 1 17.40625 24.166016 A 16.563492 16.563492 0 0 1 17.558594 23.890625 A 16.563492 16.563492 0 0 1 17.714844 23.619141 A 16.563492 16.563492 0 0 1 17.875 23.349609 A 16.563492 16.563492 0 0 1 18.041016 23.083984 A 16.563492 16.563492 0 0 1 18.212891 22.820312 A 16.563492 16.563492 0 0 1 18.388672 22.560547 A 16.563492 16.563492 0 0 1 18.570312 22.304688 A 16.563492 16.563492 0 0 1 18.757812 22.050781 A 16.563492 16.563492 0 0 1 18.947266 21.802734 A 16.563492 16.563492 0 0 1 19.144531 21.556641 A 16.563492 16.563492 0 0 1 19.34375 21.314453 A 16.563492 16.563492 0 0 1 19.546875 21.078125 A 16.563492 16.563492 0 0 1 19.757812 20.84375 A 16.563492 16.563492 0 0 1 19.970703 20.613281 A 16.563492 16.563492 0 0 1 20.189453 20.386719 A 16.563492 16.563492 0 0 1 20.412109 20.166016 A 16.563492 16.563492 0 0 1 20.636719 19.949219 A 16.563492 16.563492 0 0 1 20.869141 19.734375 A 16.563492 16.563492 0 0 1 21.101562 19.525391 A 16.563492 16.563492 0 0 1 21.339844 19.322266 A 16.563492 16.563492 0 0 1 21.583984 19.123047 A 16.563492 16.563492 0 0 1 21.830078 18.927734 A 16.563492 16.563492 0 0 1 22.078125 18.738281 A 16.563492 16.563492 0 0 1 22.330078 18.552734 A 16.563492 16.563492 0 0 1 22.587891 18.371094 A 16.563492 16.563492 0 0 1 22.847656 18.195312 A 16.563492 16.563492 0 0 1 23.111328 18.025391 A 16.563492 16.563492 0 0 1 23.376953 17.859375 A 16.563492 16.563492 0 0 1 23.646484 17.697266 A 16.563492 16.563492 0 0 1 23.919922 17.541016 A 16.563492 16.563492 0 0 1 24.195312 17.390625 A 16.563492 16.563492 0 0 1 24.472656 17.246094 A 16.563492 16.563492 0 0 1 24.753906 17.105469 A 16.563492 16.563492 0 0 1 25.039062 16.970703 A 16.563492 16.563492 0 0 1 25.324219 16.841797 A 16.563492 16.563492 0 0 1 25.5625 16.740234 L 25.5625 9.3222656 z "
       transform="scale(0.26458334)" />
    <rect
       style="fill:#ffffff;fill-opacity:1;stroke-width:0.281882;stroke-miterlimit:4;stroke-dasharray:none"
       id="rect889"
       width="1.8239057"
       height="5.7117119"
       x="7.5547137"
       y="1.3980535" />
  </g>
</svg>
